<?xml version="1.0" encoding="UTF-8" standalone="no"?>
<svg
   xmlns:dc="http://purl.org/dc/elements/1.1/"
   xmlns:cc="http://creativecommons.org/ns#"
   xmlns:rdf="http://www.w3.org/1999/02/22-rdf-syntax-ns#"
   xmlns:svg="http://www.w3.org/2000/svg"
   xmlns="http://www.w3.org/2000/svg"
   xmlns:sodipodi="http://sodipodi.sourceforge.net/DTD/sodipodi-0.dtd"
   xmlns:inkscape="http://www.inkscape.org/namespaces/inkscape"
   sodipodi:docname="jaguar-head.svg"
   inkscape:version="1.0beta2 (2b71d25, 2019-12-03)"
   id="svg9576"
   version="1.1"
   viewBox="-15 -10 130 130">
  <metadata
     id="metadata844">
    <rdf:RDF>
      <cc:Work
         rdf:about="">
        <dc:format>image/svg+xml</dc:format>
        <dc:type
           rdf:resource="http://purl.org/dc/dcmitype/StillImage" />
        <dc:title></dc:title>
      </cc:Work>
    </rdf:RDF>
  </metadata>
  <defs
     id="defs842" />
  <sodipodi:namedview
     lock-margins="false"
     inkscape:pagecheckerboard="true"
     inkscape:current-layer="layer1"
     inkscape:window-maximized="0"
     inkscape:window-y="37"
     inkscape:window-x="54"
     inkscape:cy="53.991611"
     inkscape:cx="47.436679"
     inkscape:zoom="3.886143"
     showgrid="false"
     id="namedview840"
     inkscape:window-height="735"
     inkscape:window-width="1262"
     inkscape:pageshadow="2"
     inkscape:pageopacity="0"
     guidetolerance="10"
     gridtolerance="10"
     objecttolerance="10"
     borderopacity="1"
     inkscape:document-rotation="0"
     bordercolor="#666666"
     pagecolor="#ffffff" />
  <g
     id="layer1"
     inkscape:groupmode="layer"
     inkscape:label="Layer 1">
    <g
       style="fill:#c80000;fill-opacity:1"
       transform="matrix(1.7363122,0,0,-1.7363122,-2853.7734,653.04901)"
       id="g8937">
      <g
         style="fill:#c80000;fill-opacity:1"
         id="g8939">
        <g
           style="fill:#c80000;fill-opacity:1"
           id="g8945">
          <g
             style="fill:#c80000;fill-opacity:1"
             id="g8947">
            <path
               d="m 1680.421,371.8 c -2.295,-1.156 -4.794,-1.766 -7.227,-1.766 v 0 h -22.789 c -2.192,0 -3.974,-1.781 -3.974,-3.973 v 0 -13.764 c 0,-2.191 1.782,-3.974 3.974,-3.974 v 0 c 4.317,0 7.831,-3.513 7.831,-7.83 v 0 c 0,-4.317 -3.514,-7.83 -7.831,-7.83 v 0 c -3.122,0 -5.661,-2.544 -5.661,-5.667 v 0 c 0,-3.122 2.539,-5.66 5.661,-5.66 v 0 l 28.728,0.008 c 1.603,3.513 2.417,7.267 2.417,11.174 v 0 c 0,2.863 -0.449,5.691 -1.332,8.396 v 0 c -0.036,0.11 -0.054,0.226 -0.054,0.336 v 0 c 0,0.456 0.292,0.88 0.749,1.029 v 0 c 0.568,0.189 1.178,-0.126 1.365,-0.694 v 0 c 0.956,-2.923 1.439,-5.976 1.439,-9.067 v 0 c 0,-3.889 -0.746,-7.641 -2.218,-11.174 v 0 h 2.737 c 1.598,3.513 2.411,7.269 2.411,11.174 v 0 c 0,2.547 -0.357,5.067 -1.056,7.496 v 0 c -0.027,0.1 -0.041,0.199 -0.041,0.3 v 0 c 0,0.469 0.307,0.905 0.783,1.041 v 0 c 0.575,0.164 1.174,-0.166 1.342,-0.742 v 0 c 0.757,-2.622 1.14,-5.347 1.14,-8.095 v 0 c 0,-3.847 -0.73,-7.562 -2.171,-11.065 v 0 c 6.632,0.85 11.775,6.523 11.775,13.376 v 0 l 1.367,21.282 -1.217,-1.084 c -0.868,-0.676 -1.838,-1.007 -2.864,-1.007 v 0 c -2.529,0 -4.587,2.059 -4.587,4.592 v 0 c 0,0.461 0.07,0.917 0.203,1.35 v 0 c -2.235,0.304 -3.965,2.227 -3.965,4.548 v 0 c 0,1.303 0.556,2.55 1.529,3.424 v 0 l 4.201,3.617 c -1.995,1.116 -4.273,1.682 -6.562,1.682 v 0 c -2.094,0 -4.198,-0.473 -6.103,-1.433 m -3.845,-14.785 c -0.074,0.219 -0.074,0.458 0,0.678 v 0 c 0.777,2.35 2.95,3.93 5.406,3.93 v 0 c 2.455,0 4.627,-1.58 5.402,-3.93 v 0 c 0.075,-0.22 0.075,-0.459 0,-0.678 v 0 c -0.775,-2.35 -2.947,-3.927 -5.402,-3.927 v 0 c -2.456,0 -4.629,1.577 -5.406,3.927 m -25.937,-3.734 c 0,1.384 1.127,2.51 2.511,2.51 v 0 c 1.385,0 2.512,-1.126 2.512,-2.51 v 0 c 0,-1.385 -1.127,-2.511 -2.512,-2.511 v 0 c -1.384,0 -2.511,1.126 -2.511,2.511 m 7.36,-2.894 c 0,1.385 1.128,2.512 2.512,2.512 v 0 c 1.383,0 2.511,-1.127 2.511,-2.512 v 0 c 0,-1.383 -1.128,-2.512 -2.511,-2.512 v 0 c -1.384,0 -2.512,1.129 -2.512,2.512 m 5.269,-4.338 c 0,1.383 1.128,2.513 2.51,2.513 v 0 c 1.386,0 2.513,-1.13 2.513,-2.513 v 0 c 0,-1.386 -1.127,-2.512 -2.513,-2.512 v 0 c -1.382,0 -2.51,1.126 -2.51,2.512 m 2.616,-6.987 c 0,1.386 1.128,2.512 2.512,2.512 v 0 c 1.385,0 2.511,-1.126 2.511,-2.512 v 0 c 0,-1.382 -1.126,-2.51 -2.511,-2.51 v 0 c -1.384,0 -2.512,1.128 -2.512,2.51 m -2.616,-6.541 c 0,1.383 1.128,2.512 2.51,2.512 v 0 c 1.386,0 2.513,-1.129 2.513,-2.512 v 0 c 0,-1.385 -1.127,-2.513 -2.513,-2.513 v 0 c -1.382,0 -2.51,1.128 -2.51,2.513 m -5.269,-4.341 c 0,1.386 1.128,2.512 2.512,2.512 v 0 c 1.383,0 2.511,-1.126 2.511,-2.512 v 0 c 0,-1.382 -1.128,-2.512 -2.511,-2.512 v 0 c -1.384,0 -2.512,1.13 -2.512,2.512 m -7.36,-2.891 c 0,1.383 1.127,2.512 2.511,2.512 v 0 c 1.385,0 2.512,-1.129 2.512,-2.512 v 0 c 0,-1.384 -1.127,-2.513 -2.512,-2.513 v 0 c -1.384,0 -2.511,1.129 -2.511,2.513 m 39.676,41.015 c -0.497,-0.446 -0.792,-1.106 -0.792,-1.794 v 0 c 0,-1.337 1.086,-2.424 2.421,-2.424 v 0 c 0.446,0 0.866,0.118 1.244,0.351 v 0 c 0.042,0.029 0.113,0.074 0.121,0.079 v 0 l 0.041,0.023 v 0.006 l 1.508,1.195 c 0.465,0.368 1.145,0.295 1.519,-0.173 v 0 c 0.373,-0.467 0.297,-1.148 -0.167,-1.52 v 0 l -1.508,-1.213 c -0.046,-0.039 -0.097,-0.074 -0.15,-0.102 v 0 0.005 l -0.059,-0.041 c -0.012,-0.006 -0.138,-0.089 -0.148,-0.096 v 0 c -0.647,-0.437 -1.054,-1.188 -1.054,-1.988 v 0 c 0,-1.335 1.087,-2.423 2.421,-2.423 v 0 c 0.541,0 1.053,0.173 1.482,0.504 v 0 l 2.797,2.501 0.039,0.639 c 0,4.034 -1.884,7.906 -5.075,10.463 v 0 l -4.633,-3.992 z m -11.549,-8.948 c 0.566,-1.271 1.817,-2.102 3.216,-2.102 v 0 c 1.398,0 2.646,0.831 3.213,2.102 v 0 c -0.567,1.267 -1.815,2.097 -3.213,2.097 v 0 c -1.399,0 -2.65,-0.83 -3.216,-2.097 m -34.031,-16.866 c 0,-3.128 2.542,-5.672 5.67,-5.672 v 0 c 3.125,0 5.669,2.544 5.669,5.672 v 0 c 0,3.125 -2.544,5.669 -5.669,5.669 v 0 c -3.128,0 -5.67,-2.544 -5.67,-5.669"
               style="fill:#c80000;fill-opacity:1;stroke:none"
               id="path8957"
               inkscape:connector-curvature="0" />
          </g>
        </g>
      </g>
    </g>
  </g>
</svg>
