<?xml version="1.0" encoding="UTF-8" standalone="no"?>
<svg
   xmlns:dc="http://purl.org/dc/elements/1.1/"
   xmlns:cc="http://creativecommons.org/ns#"
   xmlns:rdf="http://www.w3.org/1999/02/22-rdf-syntax-ns#"
   xmlns:svg="http://www.w3.org/2000/svg"
   xmlns="http://www.w3.org/2000/svg"
   xmlns:sodipodi="http://sodipodi.sourceforge.net/DTD/sodipodi-0.dtd"
   xmlns:inkscape="http://www.inkscape.org/namespaces/inkscape"
   inkscape:export-ydpi="96"
   inkscape:export-xdpi="96"
   inkscape:export-filename="/Users/sky/Documents/Writing/Web Art/3ai/site/3ai/media/favicon.png"
   width="300px"
   height="300px"
   viewBox="-20 -20 340 340"
   version="1.1"
   id="svg8"
   inkscape:version="1.0beta2 (2b71d25, 2019-12-03)"
   sodipodi:docname="favicon.svg">
  <metadata
     id="metadata842">
    <rdf:RDF>
      <cc:Work
         rdf:about="">
        <dc:format>image/svg+xml</dc:format>
        <dc:type
           rdf:resource="http://purl.org/dc/dcmitype/StillImage" />
      </cc:Work>
    </rdf:RDF>
  </metadata>
  <defs
     id="defs840" />
  <sodipodi:namedview
     inkscape:current-layer="svg8"
     inkscape:window-maximized="0"
     inkscape:window-y="23"
     inkscape:window-x="0"
     inkscape:cy="166.8767"
     inkscape:cx="116.62214"
     inkscape:zoom="1.1242267"
     showgrid="false"
     id="namedview838"
     inkscape:window-height="776"
     inkscape:window-width="1389"
     inkscape:pageshadow="2"
     inkscape:pageopacity="0"
     guidetolerance="10"
     gridtolerance="10"
     objecttolerance="10"
     borderopacity="1"
     inkscape:document-rotation="0"
     bordercolor="#666666"
     pagecolor="#ffffff" />
  <g
     id="g3187-6-6"
     transform="matrix(1.82259,-0.48836154,0.48836154,1.82259,150.41139,150.32555)"
     style="fill:#ffffff;fill-opacity:1;stroke-width:3.70982;stroke-miterlimit:4;stroke-dasharray:none">
    <path
       id="path3185-2-59"
       fill="none"
       stroke-width="2"
       stroke="black"
       d="m 64.007894,13.394532 q 9.223493,1.930142 17.550561,18.006023 a 87.394373,87.394373 0 0 1 -5.872708,12.296631 87.394373,87.394373 0 0 1 -7.712842,11.23423 q -18.085654,0.826488 -24.368953,-6.19622 a 65.394373,65.394373 0 0 1 -10.906766,7.897992 65.394373,65.394373 0 0 1 -12.293244,5.49654 q 2.940194,8.952851 -6.818393,24.202243 A 87.394373,87.394373 0 0 1 0,87.394373 87.394373,87.394373 0 0 1 -13.585549,86.331971 q -9.758587,-15.249392 -6.818393,-24.202243 a 65.394373,65.394373 0 0 1 -12.293244,-5.49654 65.394373,65.394373 0 0 1 -10.906766,-7.897992 q -6.283299,7.022708 -24.368953,6.19622 a 87.394373,87.394373 0 0 1 -7.712842,-11.23423 87.394373,87.394373 0 0 1 -5.872708,-12.296631 q 8.327068,-16.075881 17.550561,-18.006023 A 65.394373,65.394373 0 0 1 -65.394373,0 a 65.394373,65.394373 0 0 1 1.386479,-13.394532 q -9.223493,-1.930142 -17.550561,-18.006023 a 87.394373,87.394373 0 0 1 5.872708,-12.296631 87.394373,87.394373 0 0 1 7.712842,-11.23423 q 18.085654,-0.826488 24.368953,6.19622 a 65.394373,65.394373 0 0 1 10.906766,-7.897992 65.394373,65.394373 0 0 1 12.293244,-5.49654 q -2.940194,-8.952851 6.818393,-24.202243 A 87.394373,87.394373 0 0 1 0,-87.394373 a 87.394373,87.394373 0 0 1 13.585549,1.062402 q 9.758587,15.249392 6.818393,24.202243 a 65.394373,65.394373 0 0 1 12.293244,5.49654 65.394373,65.394373 0 0 1 10.906766,7.897992 q 6.283299,-7.022708 24.368953,-6.19622 a 87.394373,87.394373 0 0 1 7.712842,11.23423 87.394373,87.394373 0 0 1 5.872708,12.296631 q -8.327068,16.075881 -17.550561,18.006023 A 65.394373,65.394373 0 0 1 65.394373,0 65.394373,65.394373 0 0 1 64.007894,13.394532 Z"
       inkscape:connector-curvature="0"
       style="fill:#ffffff;fill-opacity:1;stroke-width:3.70982;stroke-miterlimit:4;stroke-dasharray:none" />
  </g>
  <g
     style="stroke-width:1.70268;stroke-miterlimit:4;stroke-dasharray:none"
     transform="matrix(4.1111721,0,0,4.1111721,-244.62904,-334.89364)"
     id="g900">
    <path
       style="fill:none;stroke:#000000;stroke-width:1.70268;stroke-linecap:butt;stroke-linejoin:miter;stroke-miterlimit:4;stroke-dasharray:none;stroke-opacity:1"
       d="m 102.41994,126.65325 c 0,0 3.49671,6.84333 9.72763,4.51632 5.93706,-3.58349 1.6987,-22.95806 -0.17584,-27.48533 -17.320589,-24.443362 -25.786009,6.56714 -30.318786,17.44488 -3.900818,9.12673 4.351114,17.84683 10.94989,19.77007 5.555194,1.46793 9.817106,-14.24594 9.817106,-14.24594 z"
       id="path894"
       inkscape:connector-curvature="0"
       sodipodi:nodetypes="cccccc" />
    <path
       style="fill:none;stroke:#000000;stroke-width:1.70268;stroke-linecap:butt;stroke-linejoin:miter;stroke-miterlimit:4;stroke-dasharray:none;stroke-opacity:1"
       d="m 99.830098,132.683 -9.838229,-4.07583"
       id="path896"
       inkscape:connector-curvature="0" />
  </g>
</svg>
